# xmcd CD database file
# Copyright (C) 1993-1998 Ti Kan
# 
# Track frame offsets:
#     150
#     17629
#     31016
#     48460
#     62558
#     75032
#     92964
#     112897
#     127628
#     146101
#     162528
#     182794
#     196586
#     210807
# 
# Disc length: 2987 seconds
# 
# Revision: 1
# Processed by: cddbd v1.4b41PL1 Copyright (c) Steve Scherf et al.
# Submitted via: DiscPlay 4.0.3
# 
DISCID=a30ba90e
DTITLE=Ilse DeLange - World Of Hurt
DYEAR=1900
DGENRE=
TTITLE0=Flying Blind
TTITLE1=Lonely Too
TTITLE2=Just Like The Moon
TTITLE3=What Does Your Heart Say Now
TTITLE4=I'd Be Yours
TTITLE5=World Of Hurt
TTITLE6=All The Woman You'll Ever Need
TTITLE7=If You Had The Heart
TTITLE8=Flying Solo
TTITLE9=Old Tears
TTITLE10=I'm Not So Tough
TTITLE11=When We Don't Talk
TTITLE12=Tap Dancing On The Highwire
TTITLE13=You Are The Dream
EXTD=
EXTT0=Rob Crosby/Shelly Bauerly/Ilse DeLange\n
EXTT1=Bruce Robison
EXTT2=Tia Sillers/Kim Richey
EXTT3=Rob Crosby/Ilse DeLange
EXTT4=Philip Coleman
EXTT5=Bill Lloyd/Beth Nielsen-Chapman
EXTT6=Eric Silver/Stephanie Bentley
EXTT7=Bob Morrison/Michael Huffman/Donny Kees
EXTT8=Robin Lerner/Stephen Allen Davis
EXTT9=Allen Rich/Doug Millett/Beth Nielsen-Chapman
EXTT10=Hillary Lindsey/Bruce Bouton/Robert Ellis Orrall
EXTT11=Rob Crosby/Ilse DeLange
EXTT12=Georgia Middleman
EXTT13=Liz Hengber/Rob Crosby/Ilse DeLange
PLAYORDER=
